<?xml version="1.0" encoding="UTF-8"?>
<svg xmlns="http://www.w3.org/2000/svg" width="30px" height="30px"
     version="1.1" id="Layer_1" x="0px" y="0px" viewBox="0 0 3600 3600"
     style="enable-background:new 0 0 3600 3600;" xml:space="preserve"> <style type="text/css"> .st0 {
                fill: #000000;
            } </style>
    <g fill="#FFFFFF">
                    <path d="M1359.33,2946.72c0,30.7,0.55,61.42-0.13,92.11c-1.04,47.08-30.4,84.04-77.24,92.69c-128.71,23.77-249.9-1.87-366.45-57.98 c-110.52-53.21-194.24-137.08-269.93-230.86c-82.76-102.55-162.03-207.47-213.26-330.11c-43.25-103.55-62.76-211.85-55.32-324.29 c3.32-50.06,53.66-75.99,91.43-43.93c76.14,64.65,165.78,83.31,261.47,91.56c122.75,10.59,243.6,31.27,348.15,104.11 c183.54,127.9,270.8,307.12,279.56,527.73c1.04,26.27,0.15,52.64,0.15,78.97C1358.29,2946.72,1358.82,2946.72,1359.33,2946.72z M645.03,2432.19c-1.73,10.2-2.7,12.42-2.36,14.4c2.64,15.08,5.75,30.06,8.33,45.14c21.54,125.98,88.39,229.77,163.92,328.34 c29.7,38.77,64.61,74.45,101.4,106.64c52.72,46.12,115.87,69.72,187.02,66.85c55.6-2.24,98.72-47.5,90.34-101.93 c-16.45-106.81-68.25-197.67-141.96-275c-24.39-25.58-55.52-47.29-87.49-62.55c-69.92-33.4-141.88-62.8-213.99-91.3 C717.25,2449.77,681.91,2442.7,645.03,2432.19z"></path>
        <path d="M2613.99,3167.01c-31.51-3.15-63.27-4.73-94.46-9.82c-40.73-6.65-76.14-38.83-76.6-78.82 c-1.85-162.97-8.9-326.48,71.92-478.18c105.96-198.88,270.25-307.44,492.45-332c51.11-5.65,102.3-11.01,153.21-18.28 c61.05-8.73,114.74-34.79,162.09-74.13c18.4-15.29,38.03-27.42,62.71-15.64c25.78,12.29,38.84,31.93,39.86,62.18 c5.65,169.14-42.18,322.65-135.51,462.03c-88.58,132.27-180.41,262.87-311.4,357.73 C2870.33,3120.2,2749.72,3165.71,2613.99,3167.01z M3159.39,2461.14c-9.95,0.83-14.46,0.26-18.23,1.66 c-93.01,34.45-187.06,66.46-278.66,104.34c-151.23,62.57-217.09,192.81-254.27,340.69c-15.3,60.88,31.68,111.05,95.37,111.6 c55.09,0.47,107.39-13.06,151.16-46.33c143.15-108.77,237.14-251.84,286.78-424.18 C3149.56,2521.17,3153.21,2492.16,3159.39,2461.14z"></path>
        <path d="M1560.47,2386.2c60.71,53.26,114.27,103.49,171.21,149.55c130.9,105.92,284.31,165.76,444.01,212.13 c11.57,3.35,25.76,9.93,31.44,19.38c53.55,89.04,71.28,182.92,31.63,282.52c-3.77,9.46-10.88,20.36-19.41,24.75 c-93.54,48-191.57,90.28-298.09,69.09c-179.9-35.79-315.98-132.38-374.8-314.24c-41.58-128.5-51.91-259.61-9.86-390.92 C1542.39,2420.37,1552.4,2403.62,1560.47,2386.2z"></path>
        <path d="M1621.83,1810.18c24.92,32.55,46.46,61.18,68.51,89.43c109.15,139.83,242.27,243.25,420.85,278.25 c9.39,1.85,20.69,9.63,25.29,17.89c79.88,143.39,116.68,294.62,80.12,458.52c-0.7,3.17-2.34,6.11-5.09,13.08 c-22.11-5.69-44.95-10.65-67.25-17.47c-135.29-41.39-271.5-83.17-383.58-173.17c-52.25-41.94-98.91-93.95-137.19-149.01 c-23.48-33.79-30.02-81.29-37.73-123.79C1561.69,2071.3,1586.74,1942.68,1621.83,1810.18z"></path>
        <path d="M1672.01,1322.41c18.85,21.54,34.3,38.2,48.65,55.77c100.34,122.89,214.71,227.81,364.64,287.91 c8.37,3.35,17.91,10.4,21.47,18.21c58.99,129.33,94.67,261.75,48.55,403.85c-2.32,7.12-5.2,14.06-9.42,25.35 c-25.58-7.78-50.21-15.25-74.81-22.77c-180.99-55.37-312.64-173.42-407.99-332.21c-22.98-38.26-29.06-89.15-34.13-135.21 C1617.86,1522.51,1641.25,1425.24,1672.01,1322.41z"></path>
        <path d="M2071.5,1594.32c-174.11-83.38-317.17-193.83-377.25-386.28c-28.5-91.26-15.64-172.7,52.98-245.92 c18.36,12.19,37.37,24.56,56.11,37.36c67.87,46.33,136.81,91.22,202.8,140.09c23.45,17.36,44.71,41.86,58.3,67.66 C2130.74,1333.15,2139.33,1461.75,2071.5,1594.32z"></path>
        <path d="M1797.14,569.08c51.1,68.32,116.76,109.15,191.26,138.81c13.72,5.47,30.02,20.3,33.27,33.68 c17.91,74.01,37.54,148.35,45.38,223.74c4,38.39-15.47,79.23-25.24,123.06c-123.51-50.59-224.51-116.01-282.3-227.3 C1707.03,759.94,1734.32,661.47,1797.14,569.08z"></path>
        <path d="M1904.89,117.66c87.38,175.96,116.59,353.48,76.07,545.9c-52.15-38.13-101.66-73.67-150.16-110.58 c-6.67-5.09-9.74-16.55-11.93-25.67C1783.62,380.3,1823.14,248.44,1904.89,117.66z"></path>
        <path class="st0"
              d="M645.03,2432.19c36.87,10.52,72.22,17.58,105.23,30.63c72.13,28.5,144.07,57.88,213.99,91.3 c31.97,15.27,63.1,36.96,87.49,62.55c73.71,77.33,125.51,168.19,141.96,275c8.39,54.43-34.74,99.68-90.34,101.93 c-71.15,2.86-134.31-20.73-187.02-66.85c-36.81-32.19-71.7-67.89-101.4-106.64c-75.54-98.57-142.37-202.38-163.92-328.34 c-2.58-15.08-5.69-30.08-8.33-45.14C642.33,2444.61,643.29,2442.38,645.03,2432.19z"></path>
        <path class="st0"
              d="M3159.39,2461.14c-6.18,31.02-9.84,60.03-17.83,87.79c-49.64,172.32-143.64,315.39-286.78,424.18 c-43.76,33.27-96.08,46.78-151.16,46.33c-63.7-0.53-110.69-50.72-95.37-111.6c37.19-147.88,103.04-278.11,254.27-340.69 c91.6-37.9,185.65-69.89,278.66-104.34C3144.94,2461.4,3149.44,2461.97,3159.39,2461.14z"></path> </g> </svg>

